<svg
	class="arrowSvgIcon"
	version="1.1" 
	viewBox="0 0 493.578 493.578"
	xml:space="preserve"
>
	<g>
		<path d="M6.311,267.597c0,17.366,13.999,31.519,31.519,31.519h261.093l-110.849,110.849c-12.24,12.24-12.24,32.207,0,44.676
			l29.758,29.759c12.24,12.239,32.207,12.239,44.676,0l215.348-215.348c6.12-6.12,9.256-14.23,9.256-22.262
			c0-8.109-3.136-16.142-9.256-22.262L262.357,9.179c-12.24-12.24-32.207-12.24-44.676,0l-29.758,29.759
			c-12.24,12.24-12.24,32.207,0,44.676L298.923,194.5H37.83c-17.52,0-31.519,14.153-31.519,31.518V267.597z"/>
	</g>
</svg>